# Blender v2.93.0 OBJ File: 'Cone.blend'
# www.blender.org
mtllib Cone.mtl
o Cone_Cube
v 0.277470 0.022960 -0.218491
v 0.218491 0.022960 -0.277470
v 0.003782 -0.022960 -0.202186
v 0.145642 -0.022960 -0.140293
v 0.218491 0.022960 0.277470
v 0.277470 0.022960 0.218491
v 0.202186 -0.022960 0.003782
v 0.140293 -0.022960 0.145642
v -0.218491 0.022960 -0.277470
v -0.277470 0.022960 -0.218491
v -0.202186 -0.022960 -0.003782
v -0.140293 -0.022960 -0.145642
v -0.277470 0.022960 0.218491
v -0.218491 0.022960 0.277470
v -0.003782 -0.022960 0.202186
v -0.145642 -0.022960 0.140293
v 0.227823 0.022960 -0.300000
v 0.300000 0.022960 -0.227823
v -0.227823 0.022960 0.300000
v -0.300000 0.022960 0.227823
v 0.300000 0.022960 0.227823
v 0.227823 0.022960 0.300000
v -0.300000 0.022960 -0.227823
v -0.227823 0.022960 -0.300000
v 0.218491 0.057562 -0.277470
v 0.277470 0.057562 -0.218491
v -0.218491 0.057562 0.277470
v -0.277470 0.057562 0.218491
v 0.277470 0.057562 0.218491
v 0.218491 0.057562 0.277470
v -0.277470 0.057562 -0.218491
v -0.218491 0.057562 -0.277470
v 0.300000 -0.022960 -0.227823
v 0.227823 -0.022960 -0.300000
v -0.300000 -0.022960 0.227823
v -0.227823 -0.022960 0.300000
v 0.227823 -0.022960 0.300000
v 0.300000 -0.022960 0.227823
v -0.227823 -0.022960 -0.300000
v -0.300000 -0.022960 -0.227823
v 0.128367 0.003863 -0.123653
v 0.003333 0.003863 -0.178205
v -0.128367 0.003863 0.123653
v -0.003333 0.003863 0.178205
v 0.123653 0.003863 0.128367
v 0.178205 0.003863 0.003333
v -0.123653 0.003863 -0.128367
v -0.178205 0.003863 -0.003333
v 0.000000 0.048945 -0.223598
v 0.000000 0.067421 -0.202754
v 0.193641 0.048945 -0.111799
v 0.175590 0.067421 -0.101377
v 0.193641 0.048945 0.111799
v 0.175590 0.067421 0.101377
v -0.000000 0.048945 0.223598
v -0.000000 0.067421 0.202754
v -0.193641 0.048945 0.111799
v -0.175590 0.067421 0.101377
v -0.193641 0.048945 -0.111799
v -0.175590 0.067421 -0.101377
v 0.193641 0.067421 -0.111799
v 0.000000 0.067421 -0.223598
v 0.193641 0.067421 0.111799
v -0.000000 0.067421 0.223598
v -0.193641 0.067421 0.111799
v -0.193641 0.067421 -0.111799
v 0.048152 0.809887 -0.027801
v -0.000000 0.809887 -0.055601
v 0.048152 0.809887 0.027801
v -0.000000 0.809887 0.055601
v -0.048152 0.809887 0.027801
v -0.048152 0.809887 -0.027801
v 0.035878 0.864689 -0.020714
v -0.000000 0.864689 -0.041428
v 0.035878 0.864689 0.020714
v -0.000000 0.864689 0.041428
v -0.035878 0.864689 0.020714
v -0.035878 0.864689 -0.020714
v 0.048152 0.855265 -0.027801
v -0.000000 0.855265 -0.055601
v 0.048152 0.855265 0.027801
v -0.000000 0.855265 0.055601
v -0.048152 0.855265 0.027801
v -0.048152 0.855265 -0.027801
v 0.035878 0.879991 -0.020714
v -0.000000 0.879991 -0.041428
v 0.035878 0.879991 0.020714
v -0.000000 0.879991 0.041428
v -0.035878 0.879991 0.020714
v -0.035878 0.879991 -0.020714
v 0.048152 0.825013 -0.027801
v 0.048152 0.840139 -0.027801
v 0.048152 0.840139 0.027801
v 0.048152 0.825013 0.027801
v -0.048152 0.825013 0.027801
v -0.048152 0.840139 0.027801
v -0.048152 0.840139 -0.027801
v -0.048152 0.825013 -0.027801
v -0.000000 0.840139 0.055601
v -0.000000 0.825013 0.055601
v -0.000000 0.825013 -0.055601
v -0.000000 0.840139 -0.055601
v 0.043332 0.828833 -0.025018
v 0.043332 0.836319 -0.025018
v 0.043332 0.836319 0.025018
v 0.043332 0.828833 0.025018
v -0.043332 0.828833 0.025018
v -0.043332 0.836319 0.025018
v -0.043332 0.836319 -0.025018
v -0.043332 0.828833 -0.025018
v -0.000000 0.836319 0.050036
v -0.000000 0.828833 0.050036
v -0.000000 0.828833 -0.050036
v -0.000000 0.836319 -0.050036
v 0.025499 0.879991 -0.014722
v -0.000000 0.879991 -0.029443
v 0.025499 0.879991 0.014722
v -0.000000 0.879991 0.029443
v -0.025499 0.879991 0.014722
v -0.025499 0.879991 -0.014722
v 0.018854 0.792944 -0.010885
v -0.000000 0.792944 -0.021771
v 0.018854 0.792944 0.010885
v -0.000000 0.792944 0.021771
v -0.018854 0.792944 0.010885
v -0.018854 0.792944 -0.010885
v 0.133111 0.314909 0.076852
v 0.090632 0.562398 0.052326
v -0.000000 0.562398 0.104652
v -0.000000 0.314909 0.153703
v -0.000000 0.314909 -0.153703
v -0.000000 0.562398 -0.104652
v 0.090632 0.562398 -0.052326
v 0.133111 0.314909 -0.076852
v -0.133111 0.314909 -0.076852
v -0.090632 0.562398 -0.052326
v -0.090632 0.562398 0.052326
v -0.133111 0.314909 0.076852
vt 0.171412 0.549298
vt 0.174298 0.546412
vt 0.174298 0.546412
vt 0.171412 0.549298
vt 0.375000 0.030074
vt 0.625000 0.030074
vt 0.625000 0.219926
vt 0.375000 0.219926
vt 0.375000 0.780074
vt 0.625000 0.780074
vt 0.625000 0.969926
vt 0.375000 0.969926
vt 0.865613 0.533962
vt 0.865613 0.716038
vt 0.865613 0.716038
vt 0.865613 0.533962
vt 0.375000 0.530074
vt 0.625000 0.530074
vt 0.625000 0.719926
vt 0.375000 0.719926
vt 0.375000 0.469926
vt 0.625000 0.469926
vt 0.375000 0.000000
vt 0.625000 0.000000
vt 0.625000 0.280074
vt 0.375000 0.280074
vt 0.658962 0.509387
vt 0.634387 0.533962
vt 0.655074 0.500000
vt 0.841038 0.740613
vt 0.875000 0.719926
vt 0.844926 0.750000
vt 0.634387 0.716038
vt 0.658962 0.740613
vt 0.655074 0.750000
vt 0.841038 0.509387
vt 0.844926 0.500000
vt 0.875000 0.530074
vt 0.634387 0.533962
vt 0.658962 0.509387
vt 0.841038 0.509387
vt 0.841038 0.740613
vt 0.658962 0.740613
vt 0.634387 0.716038
vt 0.328588 0.549298
vt 0.325702 0.546412
vt 0.155074 0.500000
vt 0.344926 0.500000
vt 0.344926 0.750000
vt 0.155074 0.750000
vt 0.174298 0.703588
vt 0.325702 0.703588
vt 0.328588 0.700702
vt 0.171412 0.700702
vt 0.125000 0.719926
vt 0.125000 0.530074
vt 0.171412 0.700702
vt 0.174298 0.703588
vt 0.325702 0.546412
vt 0.325702 0.703588
vt 0.328588 0.700702
vt 0.328588 0.549298
vt 0.390428 0.331076
vt 0.250000 0.412153
vt 0.109572 0.331076
vt 0.109572 0.168924
vt 0.250000 0.087848
vt 0.390428 0.168924
vt 1.000000 0.500000
vt 1.000000 1.000000
vt 0.833333 1.000000
vt 0.833333 0.500000
vt 0.666667 1.000000
vt 0.666667 0.500000
vt 0.500000 1.000000
vt 0.500000 0.500000
vt 0.333333 1.000000
vt 0.333333 0.500000
vt 0.250000 0.032373
vt 0.438471 0.141186
vt 0.438471 0.141186
vt 0.250000 0.032373
vt 0.166667 1.000000
vt 0.166667 0.500000
vt -0.000000 1.000000
vt -0.000000 0.500000
vt 0.250000 0.467627
vt 0.438471 0.358814
vt 0.457846 0.370000
vt 0.250000 0.490000
vt 0.438471 0.141186
vt 0.457846 0.130000
vt 0.250000 0.032373
vt 0.250000 0.010000
vt 0.061529 0.141186
vt 0.042154 0.130000
vt 0.061529 0.358814
vt 0.042154 0.370000
vt 0.438471 0.141186
vt 0.438471 0.358814
vt 0.438471 0.358814
vt 0.438471 0.141186
vt 0.438471 0.358814
vt 0.250000 0.467627
vt 0.250000 0.467627
vt 0.438471 0.358814
vt 0.061529 0.358814
vt 0.061529 0.358814
vt 0.061529 0.141186
vt 0.061529 0.141186
vt 0.390428 0.331076
vt 0.250000 0.412153
vt 0.250000 0.412153
vt 0.390428 0.331076
vt 0.061529 0.358814
vt 0.061529 0.141186
vt 0.061529 0.141186
vt 0.061529 0.358814
vt 0.250000 0.032373
vt 0.250000 0.032373
vt 0.250000 0.467627
vt 0.250000 0.467627
vt 0.390428 0.168924
vt 0.250000 0.087848
vt 0.109572 0.168924
vt 0.109572 0.331076
vt 0.109572 0.331076
vt 0.250000 0.087848
vt 0.109572 0.168924
vt 0.390428 0.168924
vt 0.250000 0.032373
vt 0.061529 0.141186
vt 0.438471 0.358814
vt 0.250000 0.467627
vt 0.250000 0.467627
vt 0.438471 0.358814
vt 0.061529 0.358814
vt 0.250000 0.032373
vt 0.438471 0.141186
vt 0.250000 0.032373
vt 0.061529 0.141186
vt 0.438471 0.141186
vt 0.438471 0.141186
vt 0.250000 0.467627
vt 0.061529 0.358814
vt 0.061529 0.141186
vt 0.061529 0.358814
vt 0.438471 0.358814
vt 0.109572 0.331076
vt 0.250000 0.412153
vt 0.250000 0.087848
vt 0.109572 0.168924
vt 0.390428 0.331076
vt 0.390428 0.168924
vt 0.061529 0.141186
vt 0.061529 0.358814
vt 0.438471 0.358814
vt 0.438471 0.141186
vt 0.250000 0.032373
vt 0.250000 0.467627
vn 0.7066 -0.6369 0.3083
vn -1.0000 0.0000 0.0000
vn 0.0000 0.0000 1.0000
vn 1.0000 0.0000 0.0000
vn 0.7071 0.0000 -0.7071
vn -0.7071 0.0000 0.7071
vn 0.7071 0.0000 0.7071
vn -0.7071 0.0000 -0.7071
vn 0.0000 0.0000 -1.0000
vn 0.0000 1.0000 0.0000
vn 0.0000 -1.0000 -0.0000
vn 0.3083 -0.6369 -0.7066
vn 0.7177 -0.6369 -0.2817
vn 0.2817 -0.6369 0.7177
vn -0.7066 -0.6369 -0.3083
vn -0.3083 -0.6369 0.7066
vn -0.2817 -0.6369 -0.7177
vn -0.7177 -0.6369 0.2817
vn 0.5000 0.0000 -0.8660
vn 0.5000 0.0000 0.8660
vn -0.5000 0.0000 0.8660
vn 0.4928 0.1692 0.8535
vn -0.5000 0.0000 -0.8660
vn 0.4928 0.1692 -0.8535
vn -0.4928 0.1692 -0.8535
vn -0.4928 0.1692 0.8535
vn 0.9856 0.1692 0.0000
vn -0.9856 0.1692 0.0000
vn 0.3045 0.7932 -0.5274
vn 0.6090 0.7932 0.0000
vn 0.3045 0.7932 0.5274
vn -0.3045 0.7932 0.5274
vn -0.6090 0.7932 0.0000
vn -0.3045 0.7932 -0.5274
vn 0.3106 0.7837 -0.5380
vn 0.3106 -0.7837 0.5380
vn -0.3106 0.7837 0.5380
vn 0.6212 0.7837 0.0000
vn -0.3106 -0.7837 -0.5380
vn 0.3106 0.7837 0.5380
vn 0.6212 -0.7837 -0.0000
vn -0.3106 -0.7837 0.5379
vn -0.6212 0.7837 0.0000
vn 0.3106 -0.7837 -0.5380
vn -0.3106 0.7837 -0.5380
vn -0.6212 -0.7837 0.0000
vn 0.9971 0.0761 0.0000
vn -0.4985 0.0761 -0.8635
vn -0.4985 0.0761 0.8635
vn 0.4985 0.0761 0.8635
vn 0.4985 0.0761 -0.8635
vn -0.9971 0.0761 0.0000
usemtl Dark_gray
s off
f 11/1/1 12/2/1 47/3/1 48/4/1
f 35/5/2 20/6/2 23/7/2 40/8/2
f 37/9/3 22/10/3 19/11/3 36/12/3
f 10/13/2 13/14/2 28/15/2 31/16/2
f 33/17/4 18/18/4 21/19/4 38/20/4
f 18/18/5 33/17/5 34/21/5 17/22/5
f 36/23/6 19/24/6 20/6/6 35/5/6
f 22/10/7 37/9/7 38/20/7 21/19/7
f 24/25/8 39/26/8 40/8/8 23/7/8
f 39/26/9 24/25/9 17/22/9 34/21/9
f 2/27/10 1/28/10 18/18/10 17/29/10
f 14/30/10 13/14/10 20/31/10 19/32/10
f 6/33/10 5/34/10 22/35/10 21/19/10
f 10/13/10 9/36/10 24/37/10 23/38/10
f 9/36/10 2/27/10 17/29/10 24/37/10
f 1/28/10 6/33/10 21/19/10 18/18/10
f 13/14/10 10/13/10 23/38/10 20/31/10
f 5/34/10 14/30/10 19/32/10 22/35/10
f 26/39/10 25/40/10 32/41/10 31/16/10 28/15/10 27/42/10 30/43/10 29/44/10
f 2/27/9 9/36/9 32/41/9 25/40/9
f 5/34/7 6/33/7 29/44/7 30/43/7
f 1/28/5 2/27/5 25/40/5 26/39/5
f 14/30/3 5/34/3 30/43/3 27/42/3
f 6/33/4 1/28/4 26/39/4 29/44/4
f 9/36/8 10/13/8 31/16/8 32/41/8
f 13/14/6 14/30/6 27/42/6 28/15/6
f 4/45/11 3/46/11 12/2/11 39/47/11 34/48/11 33/17/11 38/20/11 37/49/11 36/50/11 15/51/11 8/52/11 7/53/11
f 16/54/11 15/51/11 36/50/11 35/55/11 40/56/11 39/47/11 12/2/11 11/1/11
f 15/51/12 16/54/12 43/57/12 44/58/12
f 16/54/13 11/1/13 48/4/13 43/57/13
f 12/2/14 3/46/14 42/59/14 47/3/14
f 7/53/15 8/52/15 45/60/15 46/61/15
f 3/46/16 4/45/16 41/62/16 42/59/16
f 8/52/17 15/51/17 44/58/17 45/60/17
f 4/45/18 7/53/18 46/61/18 41/62/18
usemtl Black
f 48/4/11 47/3/11 42/59/11 41/62/11 46/61/11 45/60/11 44/58/11 43/57/11
f 121/63/10 122/64/10 126/65/10 125/66/10 124/67/10 123/68/10
usemtl Orange
f 49/69/19 62/70/19 61/71/19 51/72/19
f 51/72/4 61/71/4 63/73/4 53/74/4
f 53/74/20 63/73/20 64/75/20 55/76/20
f 55/76/21 64/75/21 65/77/21 57/78/21
f 129/79/22 128/80/22 69/81/22 70/82/22
f 57/78/2 65/77/2 66/83/2 59/84/2
f 59/84/23 66/83/23 62/85/23 49/86/23
f 50/87/10 52/88/10 61/89/10 62/90/10
f 52/88/10 54/91/10 63/92/10 61/89/10
f 54/91/10 56/93/10 64/94/10 63/92/10
f 56/93/10 58/95/10 65/96/10 64/94/10
f 58/95/10 60/97/10 66/98/10 65/96/10
f 60/97/10 50/87/10 62/90/10 66/98/10
f 93/99/4 92/100/4 79/101/4 81/102/4
f 133/103/24 132/104/24 68/105/24 67/106/24
f 132/104/25 136/107/25 72/108/25 68/105/25
f 137/109/26 129/79/26 70/82/26 71/110/26
f 128/80/27 133/103/27 67/106/27 69/81/27
f 136/107/28 137/109/28 71/110/28 72/108/28
f 73/111/19 74/112/19 86/113/19 85/114/19
f 97/115/2 96/116/2 83/117/2 84/118/2
f 99/119/20 93/99/20 81/102/20 82/120/20
f 92/100/19 102/121/19 80/122/19 79/101/19
f 102/121/23 97/115/23 84/118/23 80/122/23
f 96/116/21 99/119/21 82/120/21 83/117/21
f 74/112/29 73/111/29 79/101/29 80/122/29
f 73/111/30 75/123/30 81/102/30 79/101/30
f 75/123/31 76/124/31 82/120/31 81/102/31
f 76/124/32 77/125/32 83/117/32 82/120/32
f 77/125/33 78/126/33 84/118/33 83/117/33
f 78/126/34 74/112/34 80/122/34 84/118/34
f 74/112/23 78/126/23 90/127/23 86/113/23
f 77/125/21 76/124/21 88/128/21 89/129/21
f 75/123/4 73/111/4 85/114/4 87/130/4
f 78/126/2 77/125/2 89/129/2 90/127/2
f 76/124/20 75/123/20 87/130/20 88/128/20
f 71/110/21 70/82/21 100/131/21 95/132/21
f 91/133/35 101/134/35 113/135/35 103/136/35
f 68/105/23 72/108/23 98/137/23 101/134/23
f 93/99/36 99/119/36 111/138/36 105/139/36
f 67/106/19 68/105/19 101/134/19 91/133/19
f 95/132/37 100/131/37 112/140/37 107/141/37
f 70/82/20 69/81/20 94/142/20 100/131/20
f 94/142/38 91/133/38 103/136/38 106/143/38
f 72/108/2 71/110/2 95/132/2 98/137/2
f 97/115/39 102/121/39 114/144/39 109/145/39
f 69/81/4 67/106/4 91/133/4 94/142/4
f 100/131/40 94/142/40 106/143/40 112/140/40
f 107/141/21 112/140/21 111/138/21 108/146/21
f 113/135/23 110/147/23 109/145/23 114/144/23
f 103/136/19 113/135/19 114/144/19 104/148/19
f 112/140/20 106/143/20 105/139/20 111/138/20
f 110/147/2 107/141/2 108/146/2 109/145/2
f 106/143/4 103/136/4 104/148/4 105/139/4
f 92/100/41 93/99/41 105/139/41 104/148/41
f 99/119/42 96/116/42 108/146/42 111/138/42
f 98/137/43 95/132/43 107/141/43 110/147/43
f 102/121/44 92/100/44 104/148/44 114/144/44
f 101/134/45 98/137/45 110/147/45 113/135/45
f 96/116/46 97/115/46 109/145/46 108/146/46
f 86/113/10 90/127/10 120/149/10 116/150/10
f 89/129/10 88/128/10 118/151/10 119/152/10
f 87/130/10 85/114/10 115/153/10 117/154/10
f 90/127/10 89/129/10 119/152/10 120/149/10
f 88/128/10 87/130/10 117/154/10 118/151/10
f 85/114/10 86/113/10 116/150/10 115/153/10
f 120/149/47 119/152/47 125/66/47 126/65/47
f 118/151/48 117/154/48 123/68/48 124/67/48
f 115/153/49 116/150/49 122/64/49 121/63/49
f 116/150/50 120/149/50 126/65/50 122/64/50
f 119/152/51 118/151/51 124/67/51 125/66/51
f 117/154/52 115/153/52 121/63/52 123/68/52
f 60/97/28 58/95/28 138/155/28 135/156/28
f 54/91/27 52/88/27 134/157/27 127/158/27
f 58/95/26 56/93/26 130/159/26 138/155/26
f 50/87/25 60/97/25 135/156/25 131/160/25
f 52/88/24 50/87/24 131/160/24 134/157/24
f 56/93/22 54/91/22 127/158/22 130/159/22
usemtl White
f 135/156/28 138/155/28 137/109/28 136/107/28
f 127/158/27 134/157/27 133/103/27 128/80/27
f 138/155/26 130/159/26 129/79/26 137/109/26
f 131/160/25 135/156/25 136/107/25 132/104/25
f 134/157/24 131/160/24 132/104/24 133/103/24
f 130/159/22 127/158/22 128/80/22 129/79/22
