# Blender v2.90.0 OBJ File: 'TrashCan_02.blend'
# www.blender.org
mtllib TrashCan_02.mtl
o TrashCan_02_Cylinder.009
v -0.000000 -1.876534 -1.355702
v -0.000000 1.289475 -1.355702
v 0.796861 -1.876534 -1.096786
v 0.796861 1.289475 -1.096786
v 1.289349 -1.876534 -0.418935
v 1.289349 1.289475 -0.418935
v 1.289349 -1.876534 0.418935
v 1.289349 1.289475 0.418935
v 0.796861 -1.876534 1.096786
v 0.796861 1.289475 1.096786
v -0.000000 -1.876534 1.355702
v -0.000000 1.289475 1.355702
v -0.796862 -1.876534 1.096786
v -0.796862 1.289475 1.096786
v -1.289349 -1.876534 0.418935
v -1.289349 1.289475 0.418935
v -1.289349 -1.876534 -0.418935
v -1.289349 1.289475 -0.418935
v -0.796861 -1.876534 -1.096786
v -0.796861 1.289475 -1.096786
v 0.972759 1.750087 -1.338887
v -0.000000 1.750087 -1.654956
v 1.573957 1.750087 -0.511409
v 1.573957 1.750087 0.511410
v 0.972759 1.750087 1.338888
v -0.000000 1.750087 1.654956
v -0.972759 1.750087 1.338887
v -1.573957 1.750087 0.511410
v -1.573957 1.750087 -0.511410
v -0.972758 1.750087 -1.338888
v 0.837570 1.750087 -1.152816
v -0.000000 1.750087 -1.424959
v -0.837569 1.750087 -1.152816
v -1.355216 1.750087 -0.440337
v -1.355216 1.750087 0.440337
v -0.837570 1.750087 1.152816
v -0.000000 1.750087 1.424959
v 0.837570 1.750087 1.152816
v 1.355216 1.750087 0.440337
v 1.355217 1.750087 -0.440336
v 0.392911 -1.738999 -0.540795
v -0.000000 -1.738999 -0.668460
v 0.635743 -1.738999 -0.206565
v -0.392911 -1.738999 -0.540795
v -0.635743 -1.738999 -0.206566
v -0.635743 -1.738999 0.206565
v -0.392911 -1.738999 0.540795
v -0.000000 -1.738999 0.668459
v 0.392911 -1.738999 0.540795
v 0.635743 -1.738999 0.206565
v 0.099786 -1.771613 -1.323279
v 0.099786 1.184554 -1.323279
v 0.697076 1.184554 -1.129208
v 0.697075 -1.771613 -1.129208
v 1.289349 -1.771613 -0.314014
v 1.289349 1.184554 -0.314014
v 1.289349 1.184554 0.314014
v 1.289349 -1.771613 0.314014
v 0.697075 -1.771613 1.129208
v 0.697075 1.184554 1.129208
v 0.099786 1.184554 1.323279
v 0.099786 -1.771613 1.323279
v -0.858533 -1.771613 1.011903
v -0.858533 1.184554 1.011903
v -1.227678 1.184554 0.503818
v -1.227678 -1.771613 0.503818
v -1.227678 -1.771613 -0.503818
v -1.227678 1.184554 -0.503818
v -0.858532 1.184554 -1.011903
v -0.858532 -1.771613 -1.011903
v 0.094252 -1.689639 -1.249891
v 0.094252 1.102580 -1.249891
v 0.658416 -1.689639 -1.066583
v 0.658416 1.102580 -1.066583
v 1.217842 1.102580 -0.296599
v 1.217842 -1.689639 -0.296599
v 1.217842 -1.689639 0.296599
v 1.217842 1.102580 0.296599
v 0.658416 1.102580 1.066583
v 0.658416 -1.689639 1.066583
v 0.094252 -1.689639 1.249891
v 0.094252 1.102580 1.249891
v -0.810919 1.102580 0.955783
v -0.810919 -1.689639 0.955783
v -1.159591 -1.689639 0.475876
v -1.159591 1.102580 0.475876
v -1.159591 1.102580 -0.475876
v -1.159591 -1.689639 -0.475876
v -0.810918 -1.689639 -0.955783
v -0.810918 1.102580 -0.955783
vt 0.712522 0.516570
vt 0.787478 0.516570
vt 0.712522 0.516570
vt 0.900000 1.000000
vt 0.800000 0.500000
vt 0.900000 0.500000
vt 0.587478 0.983430
vt 0.587478 0.516570
vt 0.587478 0.516570
vt 0.700000 1.000000
vt 0.600000 0.500000
vt 0.700000 0.500000
vt 0.987478 0.516570
vt 0.912522 0.516570
vt 0.912522 0.516570
vt 0.500000 1.000000
vt 0.400000 0.500000
vt 0.500000 0.500000
vt 0.787478 0.983430
vt 0.787478 0.516570
vt 0.300000 1.000000
vt 0.200000 0.500000
vt 0.300000 0.500000
vt 0.100000 1.000000
vt 0.200000 1.000000
vt 0.100000 1.000000
vt 0.987478 0.983430
vt 0.987478 0.516570
vt -0.000000 0.500000
vt 0.100000 0.500000
vt 0.978254 0.175836
vt 0.521746 0.175836
vt 0.608932 0.444164
vt 0.053468 0.313857
vt 0.128537 0.417180
vt 0.128537 0.417180
vt 0.200000 1.000000
vt 0.400000 1.000000
vt 0.300000 1.000000
vt 0.400000 1.000000
vt 0.600000 1.000000
vt 0.500000 1.000000
vt 0.600000 1.000000
vt 1.000000 1.000000
vt 0.900000 1.000000
vt 0.800000 1.000000
vt 0.700000 1.000000
vt 0.800000 1.000000
vt -0.000000 1.000000
vt -0.000000 1.000000
vt 0.250000 0.490000
vt 0.371463 0.417180
vt 0.391068 0.444164
vt 0.250000 0.456646
vt 0.108932 0.444164
vt 0.021746 0.175836
vt 0.021746 0.324164
vt 0.108932 0.055836
vt 0.053468 0.186143
vt 0.250000 0.010000
vt 0.128536 0.082820
vt 0.371464 0.082820
vt 0.250000 0.043354
vt 0.391068 0.055836
vt 0.446532 0.186143
vt 0.478254 0.324164
vt 0.478254 0.175836
vt 0.446532 0.313857
vt 0.053468 0.313857
vt 0.371464 0.082820
vt 0.446532 0.313857
vt 0.371463 0.417180
vt 0.250000 0.043354
vt 0.053468 0.186143
vt 0.250000 0.456646
vt 0.446532 0.186143
vt 0.128536 0.082820
vt 1.000000 0.500000
vt 0.912522 0.983430
vt 0.712522 0.983430
vt 0.512522 0.516570
vt 0.512522 0.983430
vt 0.387478 0.516570
vt 0.387478 0.983430
vt 0.312522 0.516570
vt 0.312522 0.983430
vt 0.187478 0.516570
vt 0.187478 0.983430
vt 0.112522 0.516570
vt 0.112522 0.983430
vt 0.987478 0.983430
vt 0.787478 0.983430
vt 0.587478 0.983430
vt 0.512522 0.516570
vt 0.387478 0.983430
vt 0.312522 0.516570
vt 0.387478 0.516570
vt 0.187478 0.983430
vt 0.112522 0.516570
vt 0.187478 0.516570
vt 0.912522 0.983430
vt 0.712522 0.983430
vt 0.312522 0.983430
vt 0.512522 0.983430
vt 0.112522 0.983430
vt 0.750000 0.490000
vt 0.891068 0.444164
vt 0.978254 0.324164
vt 0.891068 0.055836
vt 0.750000 0.010000
vt 0.608932 0.055836
vt 0.521746 0.324164
vt 1.000000 1.000000
vn 0.7536 0.6574 0.0000
vn 0.8090 0.0000 -0.5878
vn -0.8509 0.0000 0.5253
vn 0.8090 0.0000 0.5878
vn 0.2329 0.6574 -0.7167
vn -0.3090 0.0000 0.9511
vn 0.2366 0.0000 0.9716
vn -1.0000 0.0000 0.0000
vn -0.6882 -0.5256 -0.5000
vn 0.9972 -0.0000 0.0752
vn -0.3090 0.0000 -0.9511
vn 0.0000 -1.0000 0.0000
vn 0.7923 0.2020 0.5757
vn -0.8507 -0.5256 0.0000
vn -0.6882 -0.5256 0.5000
vn -0.2629 -0.5256 0.8091
vn 0.2629 -0.5256 0.8091
vn 0.6882 -0.5256 0.5000
vn 0.2629 -0.5256 -0.8091
vn 0.8507 -0.5256 0.0000
vn 0.6882 -0.5256 -0.5000
vn -0.2629 -0.5256 -0.8091
vn 0.0000 1.0000 0.0000
vn -0.3026 0.2020 0.9315
vn -0.3026 0.2020 -0.9315
vn 0.9794 0.2020 0.0000
vn -0.7923 0.2020 0.5757
vn -0.7923 0.2020 -0.5757
vn 0.7923 0.2020 -0.5757
vn 0.3026 0.2020 0.9315
vn -0.9794 0.2020 -0.0000
vn 0.3026 0.2020 -0.9315
vn 0.3090 0.0000 -0.9511
vn 1.0000 0.0000 0.0000
vn 0.3090 0.0000 0.9511
vn -0.8090 0.0000 0.5878
vn -0.8090 0.0000 -0.5878
vn -0.7625 0.0000 -0.6470
vn 0.2329 -0.6574 -0.7167
vn 0.2329 0.6574 0.7167
vn 0.3797 0.0000 -0.9251
vn 0.7536 -0.6574 0.0000
vn -0.6097 0.6574 0.4429
vn -0.8509 0.0000 -0.5253
vn 0.2329 -0.6574 0.7167
vn -0.6097 0.6574 -0.4429
vn 0.2366 0.0000 -0.9716
vn -0.6097 -0.6574 0.4429
vn 0.9972 -0.0000 -0.0752
vn -0.6097 -0.6574 -0.4429
vn 0.3797 -0.0000 0.9251
vn -0.7625 0.0000 0.6470
usemtl BlackTrashCan02
s off
f 58/1/1 76/2/1 77/3/1
f 4/4/2 5/5/2 3/6/2
f 60/7/3 80/8/3 59/9/3
f 8/10/4 9/11/4 7/12/4
f 51/13/5 73/14/5 54/15/5
f 12/16/6 13/17/6 11/18/6
f 56/19/7 76/2/7 55/20/7
f 16/21/8 17/22/8 15/23/8
f 20/24/9 29/25/9 30/26/9
f 52/27/10 71/28/10 51/13/10
f 20/24/11 1/29/11 19/30/11
f 7/31/12 15/32/12 19/33/12
f 34/34/13 44/35/13 33/36/13
f 16/21/14 29/25/14 18/37/14
f 14/38/15 28/39/15 16/21/15
f 12/16/16 27/40/16 14/38/16
f 10/41/17 26/42/17 12/16/17
f 8/10/18 25/43/18 10/41/18
f 2/44/19 21/45/19 4/4/19
f 6/46/20 24/47/20 8/10/20
f 6/46/21 21/45/21 23/48/21
f 2/49/22 30/26/22 22/50/22
f 22/51/23 31/52/23 21/53/23
f 22/51/23 33/36/23 32/54/23
f 30/55/23 34/34/23 33/36/23
f 28/56/23 34/34/23 29/57/23
f 27/58/23 35/59/23 28/56/23
f 26/60/23 36/61/23 27/58/23
f 26/60/23 38/62/23 37/63/23
f 25/64/23 39/65/23 38/62/23
f 23/66/23 39/65/23 24/67/23
f 21/53/23 40/68/23 23/66/23
f 45/69/23 49/70/23 43/71/23
f 32/54/24 41/72/24 31/52/24
f 38/62/25 48/73/25 37/63/25
f 35/59/26 45/69/26 34/34/26
f 31/52/27 43/71/27 40/68/27
f 39/65/28 49/70/28 38/62/28
f 36/61/29 46/74/29 35/59/29
f 32/54/30 44/35/30 42/75/30
f 39/65/31 43/71/31 50/76/31
f 37/63/32 47/77/32 36/61/32
f 2/44/33 51/13/33 1/78/33
f 4/4/33 52/27/33 2/44/33
f 4/4/33 54/15/33 53/79/33
f 1/78/33 54/15/33 3/6/33
f 6/46/34 55/20/34 5/5/34
f 8/10/34 56/19/34 6/46/34
f 8/10/34 58/1/34 57/80/34
f 5/5/34 58/1/34 7/12/34
f 9/11/35 60/7/35 59/9/35
f 12/16/35 60/7/35 10/41/35
f 12/16/35 62/81/35 61/82/35
f 9/11/35 62/81/35 11/18/35
f 14/38/36 63/83/36 13/17/36
f 16/21/36 64/84/36 14/38/36
f 16/21/36 66/85/36 65/86/36
f 15/23/36 63/83/36 66/85/36
f 18/37/37 67/87/37 17/22/37
f 20/24/37 68/88/37 18/37/37
f 20/24/37 70/89/37 69/90/37
f 17/22/37 70/89/37 19/30/37
f 72/91/33 73/14/33 71/28/33
f 75/92/34 77/3/34 76/2/34
f 79/93/35 81/94/35 80/8/35
f 83/95/36 85/96/36 84/97/36
f 87/98/37 89/99/37 88/100/37
f 64/84/38 84/97/38 63/83/38
f 52/27/39 74/101/39 72/91/39
f 59/9/40 81/94/40 62/81/40
f 68/88/41 88/100/41 67/87/41
f 57/80/42 75/92/42 56/19/42
f 66/85/43 84/97/43 85/96/43
f 54/15/44 74/101/44 53/79/44
f 61/82/45 79/93/45 60/7/45
f 67/87/46 89/99/46 70/89/46
f 58/1/47 78/102/47 57/80/47
f 64/84/48 86/103/48 83/95/48
f 62/81/49 82/104/49 61/82/49
f 68/88/50 90/105/50 87/98/50
f 66/85/51 86/103/51 65/86/51
f 70/89/52 90/105/52 69/90/52
f 58/1/1 55/20/1 76/2/1
f 4/4/2 6/46/2 5/5/2
f 60/7/3 79/93/3 80/8/3
f 8/10/4 10/41/4 9/11/4
f 51/13/5 71/28/5 73/14/5
f 12/16/6 14/38/6 13/17/6
f 56/19/7 75/92/7 76/2/7
f 16/21/8 18/37/8 17/22/8
f 20/24/9 18/37/9 29/25/9
f 52/27/10 72/91/10 71/28/10
f 20/24/11 2/49/11 1/29/11
f 19/33/12 1/106/12 3/107/12
f 3/107/12 5/108/12 7/31/12
f 7/31/12 9/109/12 11/110/12
f 11/110/12 13/111/12 15/32/12
f 15/32/12 17/112/12 19/33/12
f 19/33/12 3/107/12 7/31/12
f 7/31/12 11/110/12 15/32/12
f 34/34/13 45/69/13 44/35/13
f 16/21/14 28/39/14 29/25/14
f 14/38/15 27/40/15 28/39/15
f 12/16/16 26/42/16 27/40/16
f 10/41/17 25/43/17 26/42/17
f 8/10/18 24/47/18 25/43/18
f 2/44/19 22/113/19 21/45/19
f 6/46/20 23/48/20 24/47/20
f 6/46/21 4/4/21 21/45/21
f 2/49/22 20/24/22 30/26/22
f 22/51/23 32/54/23 31/52/23
f 22/51/23 30/55/23 33/36/23
f 30/55/23 29/57/23 34/34/23
f 28/56/23 35/59/23 34/34/23
f 27/58/23 36/61/23 35/59/23
f 26/60/23 37/63/23 36/61/23
f 26/60/23 25/64/23 38/62/23
f 25/64/23 24/67/23 39/65/23
f 23/66/23 40/68/23 39/65/23
f 21/53/23 31/52/23 40/68/23
f 43/71/23 41/72/23 42/75/23
f 42/75/23 44/35/23 45/69/23
f 45/69/23 46/74/23 47/77/23
f 47/77/23 48/73/23 45/69/23
f 48/73/23 49/70/23 45/69/23
f 49/70/23 50/76/23 43/71/23
f 43/71/23 42/75/23 45/69/23
f 32/54/24 42/75/24 41/72/24
f 38/62/25 49/70/25 48/73/25
f 35/59/26 46/74/26 45/69/26
f 31/52/27 41/72/27 43/71/27
f 39/65/28 50/76/28 49/70/28
f 36/61/29 47/77/29 46/74/29
f 32/54/30 33/36/30 44/35/30
f 39/65/31 40/68/31 43/71/31
f 37/63/32 48/73/32 47/77/32
f 2/44/33 52/27/33 51/13/33
f 4/4/33 53/79/33 52/27/33
f 4/4/33 3/6/33 54/15/33
f 1/78/33 51/13/33 54/15/33
f 6/46/34 56/19/34 55/20/34
f 8/10/34 57/80/34 56/19/34
f 8/10/34 7/12/34 58/1/34
f 5/5/34 55/20/34 58/1/34
f 9/11/35 10/41/35 60/7/35
f 12/16/35 61/82/35 60/7/35
f 12/16/35 11/18/35 62/81/35
f 9/11/35 59/9/35 62/81/35
f 14/38/36 64/84/36 63/83/36
f 16/21/36 65/86/36 64/84/36
f 16/21/36 15/23/36 66/85/36
f 15/23/36 13/17/36 63/83/36
f 18/37/37 68/88/37 67/87/37
f 20/24/37 69/90/37 68/88/37
f 20/24/37 19/30/37 70/89/37
f 17/22/37 67/87/37 70/89/37
f 72/91/33 74/101/33 73/14/33
f 75/92/34 78/102/34 77/3/34
f 79/93/35 82/104/35 81/94/35
f 83/95/36 86/103/36 85/96/36
f 87/98/37 90/105/37 89/99/37
f 64/84/38 83/95/38 84/97/38
f 52/27/39 53/79/39 74/101/39
f 59/9/40 80/8/40 81/94/40
f 68/88/41 87/98/41 88/100/41
f 57/80/42 78/102/42 75/92/42
f 66/85/43 63/83/43 84/97/43
f 54/15/44 73/14/44 74/101/44
f 61/82/45 82/104/45 79/93/45
f 67/87/46 88/100/46 89/99/46
f 58/1/47 77/3/47 78/102/47
f 64/84/48 65/86/48 86/103/48
f 62/81/49 81/94/49 82/104/49
f 68/88/50 69/90/50 90/105/50
f 66/85/51 85/96/51 86/103/51
f 70/89/52 89/99/52 90/105/52
